{
  "accessors": [
    {
      "bufferView": 2,
      "componentType": 5126,
      "count": 1677,
      "max": [
        4.060611724853516,
        14.437267303466797,
        7.003781318664551
      ],
      "min": [
        -4.668084144592285,
        1.2549968957901,
        -3.8098561763763428
      ],
      "type": "VEC3"
    },
    {
      "bufferView": 2,
      "byteOffset": 20124,
      "componentType": 5126,
      "count": 1677,
      "max": [
        0.9984714388847351,
        0.9991393685340881,
        0.9998061060905457
      ],
      "min": [
        -0.9985812902450562,
        -0.9991393685340881,
        -0.9995408058166504
      ],
      "type": "VEC3"
    },
    {
      "bufferView": 1,
      "componentType": 5126,
      "count": 1677,
      "max": [
        1.0000001192092896,
        1.0
      ],
      "min": [
        0.0,
        0.0
      ],
      "type": "VEC2"
    },
    {
      "bufferView": 0,
      "componentType": 5125,
      "count": 9360,
      "type": "SCALAR"
    },
    {
      "bufferView": 2,
      "byteOffset": 40248,
      "componentType": 5126,
      "count": 1677,
      "max": [
        4.079581260681152,
        14.456247329711914,
        7.022768974304199
      ],
      "min": [
        -4.687051296234131,
        1.2360172271728516,
        -3.8288488388061523
      ],
      "type": "VEC3"
    },
    {
      "bufferView": 2,
      "byteOffset": 60372,
      "componentType": 5126,
      "count": 1677,
      "max": [
        0.998471736907959,
        0.9991393685340881,
        0.9998065233230591
      ],
      "min": [
        -0.9985816478729248,
        -0.9991393089294434,
        -0.999541163444519
      ],
      "type": "VEC3"
    },
    {
      "bufferView": 1,
      "byteOffset": 13416,
      "componentType": 5126,
      "count": 1677,
      "max": [
        1.0000001192092896,
        1.0
      ],
      "min": [
        0.0,
        0.0
      ],
      "type": "VEC2"
    },
    {
      "bufferView": 0,
      "byteOffset": 37440,
      "componentType": 5125,
      "count": 9360,
      "type": "SCALAR"
    },
    {
      "bufferView": 2,
      "byteOffset": 80496,
      "componentType": 5126,
      "count": 65532,
      "max": [
        2.220521926879883,
        13.020233154296875,
        5.519781112670898
      ],
      "min": [
        -2.006214141845703,
        2.364192008972168,
        -3.5460023880004883
      ],
      "type": "VEC3"
    },
    {
      "bufferView": 2,
      "byteOffset": 866880,
      "componentType": 5126,
      "count": 65532,
      "max": [
        0.9999982118606567,
        0.9999895691871643,
        0.9999902248382568
      ],
      "min": [
        -0.9999593496322632,
        -0.999971866607666,
        -0.9999854564666748
      ],
      "type": "VEC3"
    },
    {
      "bufferView": 1,
      "byteOffset": 26832,
      "componentType": 5126,
      "count": 65532,
      "max": [
        0.9980080723762512,
        1.0
      ],
      "min": [
        -0.23194319009780884,
        -0.0009027346968650818
      ],
      "type": "VEC2"
    },
    {
      "bufferView": 0,
      "byteOffset": 74880,
      "componentType": 5125,
      "count": 359436,
      "type": "SCALAR"
    },
    {
      "bufferView": 2,
      "byteOffset": 1653264,
      "componentType": 5126,
      "count": 35007,
      "max": [
        2.134935140609741,
        13.06948184967041,
        6.4335222244262695
      ],
      "min": [
        -2.1883528232574463,
        2.416301727294922,
        -1.094388484954834
      ],
      "type": "VEC3"
    },
    {
      "bufferView": 2,
      "byteOffset": 2073348,
      "componentType": 5126,
      "count": 35007,
      "max": [
        0.9999716877937317,
        0.9999991059303284,
        0.9999729990959167
      ],
      "min": [
        -0.9998793005943298,
        -0.9999956488609314,
        -0.9999575018882751
      ],
      "type": "VEC3"
    },
    {
      "bufferView": 1,
      "byteOffset": 551088,
      "componentType": 5126,
      "count": 35007,
      "max": [
        0.9997061491012573,
        1.0
      ],
      "min": [
        0.0029249191284179688,
        0.0
      ],
      "type": "VEC2"
    },
    {
      "bufferView": 0,
      "byteOffset": 1512624,
      "componentType": 5125,
      "count": 201462,
      "type": "SCALAR"
    },
    {
      "bufferView": 2,
      "byteOffset": 2493432,
      "componentType": 5126,
      "count": 65532,
      "max": [
        2.1951420307159424,
        12.992268562316895,
        5.494016647338867
      ],
      "min": [
        -1.9781951904296875,
        2.392024040222168,
        -3.5184803009033203
      ],
      "type": "VEC3"
    },
    {
      "bufferView": 2,
      "byteOffset": 3279816,
      "componentType": 5126,
      "count": 65532,
      "max": [
        0.9999991059303284,
        1.0,
        1.0
      ],
      "min": [
        -0.999978244304657,
        -1.0,
        -1.0
      ],
      "type": "VEC3"
    },
    {
      "bufferView": 1,
      "byteOffset": 831144,
      "componentType": 5126,
      "count": 65532,
      "max": [
        0.9980080723762512,
        1.0
      ],
      "min": [
        -0.23194319009780884,
        -0.0009027346968650818
      ],
      "type": "VEC2"
    },
    {
      "bufferView": 0,
      "byteOffset": 2318472,
      "componentType": 5125,
      "count": 321465,
      "type": "SCALAR"
    },
    {
      "bufferView": 2,
      "byteOffset": 4066200,
      "componentType": 5126,
      "count": 48804,
      "max": [
        2.1072750091552734,
        13.041999816894531,
        6.406632900238037
      ],
      "min": [
        -2.162130117416382,
        2.444171905517578,
        -1.0663423538208008
      ],
      "type": "VEC3"
    },
    {
      "bufferView": 2,
      "byteOffset": 4651848,
      "componentType": 5126,
      "count": 48804,
      "max": [
        0.9999503493309021,
        1.0,
        1.0
      ],
      "min": [
        -0.9999926686286926,
        -1.0,
        -0.9999182224273682
      ],
      "type": "VEC3"
    },
    {
      "bufferView": 1,
      "byteOffset": 1355400,
      "componentType": 5126,
      "count": 48804,
      "max": [
        0.9997061491012573,
        1.0
      ],
      "min": [
        0.0029249191284179688,
        0.0
      ],
      "type": "VEC2"
    },
    {
      "bufferView": 0,
      "byteOffset": 3604332,
      "componentType": 5125,
      "count": 239427,
      "type": "SCALAR"
    }
  ],
  "asset": {
    "extras": {
      "author": "Joel Anderson (https://sketchfab.com/joel3d)",
      "license": "CC-BY-4.0 (http://creativecommons.org/licenses/by/4.0/)",
      "source": "https://sketchfab.com/3d-models/trex-egg-04f3d27fc7c145c4a95f7625faadec8b",
      "title": "T.rex Egg"
    },
    "generator": "Sketchfab-12.67.0",
    "version": "2.0"
  },
  "bufferViews": [
    {
      "buffer": 0,
      "byteLength": 4562040,
      "name": "floatBufferViews",
      "target": 34963
    },
    {
      "buffer": 0,
      "byteLength": 1745832,
      "byteOffset": 4562040,
      "byteStride": 8,
      "name": "floatBufferViews",
      "target": 34962
    },
    {
      "buffer": 0,
      "byteLength": 5237496,
      "byteOffset": 6307872,
      "byteStride": 12,
      "name": "floatBufferViews",
      "target": 34962
    }
  ],
  "buffers": [
    {
      "byteLength": 11545368,
      "uri": "scene.bin"
    }
  ],
  "materials": [
    {
      "emissiveFactor": [
        1.0,
        1.0,
        1.0
      ],
      "name": "phong3",
      "pbrMetallicRoughness": {
        "metallicFactor": 0.0,
        "roughnessFactor": 0.8942628737
      }
    },
    {
      "name": "lambert3",
      "pbrMetallicRoughness": {
        "baseColorFactor": [
          0.0,
          0.0,
          0.0,
          1.0
        ],
        "metallicFactor": 0.0,
        "roughnessFactor": 0.6
      }
    },
    {
      "name": "lambert4",
      "pbrMetallicRoughness": {
        "baseColorFactor": [
          0.0,
          0.0,
          0.0,
          1.0
        ],
        "metallicFactor": 0.0,
        "roughnessFactor": 0.6
      }
    },
    {
      "emissiveFactor": [
        1.0,
        1.0,
        1.0
      ],
      "name": "phong4",
      "pbrMetallicRoughness": {
        "metallicFactor": 0.0,
        "roughnessFactor": 0.8942628737
      }
    }
  ],
  "meshes": [
    {
      "name": "pSphere4_phong3_0",
      "primitives": [
        {
          "attributes": {
            "NORMAL": 1,
            "POSITION": 0,
            "TEXCOORD_0": 2
          },
          "indices": 3,
          "material": 0,
          "mode": 4
        }
      ]
    },
    {
      "name": "pSphere5_lambert3_0",
      "primitives": [
        {
          "attributes": {
            "NORMAL": 5,
            "POSITION": 4,
            "TEXCOORD_0": 6
          },
          "indices": 7,
          "material": 1,
          "mode": 4
        }
      ]
    },
    {
      "name": "polySurface487_lambert4_0",
      "primitives": [
        {
          "attributes": {
            "NORMAL": 9,
            "POSITION": 8,
            "TEXCOORD_0": 10
          },
          "indices": 11,
          "material": 2,
          "mode": 4
        }
      ]
    },
    {
      "name": "polySurface487_lambert4_0",
      "primitives": [
        {
          "attributes": {
            "NORMAL": 13,
            "POSITION": 12,
            "TEXCOORD_0": 14
          },
          "indices": 15,
          "material": 2,
          "mode": 4
        }
      ]
    },
    {
      "name": "polySurface488_phong4_0",
      "primitives": [
        {
          "attributes": {
            "NORMAL": 17,
            "POSITION": 16,
            "TEXCOORD_0": 18
          },
          "indices": 19,
          "material": 3,
          "mode": 4
        }
      ]
    },
    {
      "name": "polySurface488_phong4_0",
      "primitives": [
        {
          "attributes": {
            "NORMAL": 21,
            "POSITION": 20,
            "TEXCOORD_0": 22
          },
          "indices": 23,
          "material": 3,
          "mode": 4
        }
      ]
    }
  ],
  "nodes": [
    {
      "children": [
        1
      ],
      "matrix": [
        0.9912170767784119,
        0.13224506378173828,
        2.9364302940701643e-17,
        0.0,
        0.003637932939454913,
        -0.027267413213848846,
        -0.999621570110321,
        0.0,
        -0.13219502568244934,
        0.9908419251441956,
        -0.027509024366736193,
        0.0,
        1.0367932319641113,
        -0.03964943438768391,
        0.19489546120166779,
        1.0
      ],
      "name": "Sketchfab_model"
    },
    {
      "children": [
        2
      ],
      "matrix": [
        1.0,
        0.0,
        0.0,
        0.0,
        0.0,
        0.0,
        1.0,
        0.0,
        0.0,
        -1.0,
        0.0,
        0.0,
        0.0,
        0.0,
        0.0,
        1.0
      ],
      "name": "7e59b32519ba42a0a8947bde4b3aced6.fbx"
    },
    {
      "children": [
        3
      ],
      "name": "RootNode"
    },
    {
      "children": [
        4,
        6,
        8,
        11
      ],
      "matrix": [
        0.9837105619632203,
        -0.031732154304448694,
        0.17693671372896017,
        0.0,
        0.13370281799575578,
        0.7870788843027909,
        -0.6021879991702488,
        0.0,
        -0.12015442872403473,
        0.616035632303743,
        0.7785004900384639,
        0.0,
        -0.5492400527000427,
        0.8001703023910522,
        5.166831016540527,
        1.0
      ],
      "name": "group1"
    },
    {
      "children": [
        5
      ],
      "matrix": [
        1.0,
        0.0,
        5.55111512312578e-17,
        0.0,
        6.1629758220391534e-33,
        1.0,
        -1.1102230246251568e-16,
        0.0,
        -5.55111512312578e-17,
        1.1102230246251568e-16,
        1.0,
        0.0,
        0.0,
        0.0,
        0.0,
        1.0
      ],
      "name": "pSphere4"
    },
    {
      "mesh": 0,
      "name": "pSphere4_phong3_0"
    },
    {
      "children": [
        7
      ],
      "matrix": [
        1.0,
        0.0,
        5.55111512312578e-17,
        0.0,
        6.1629758220391534e-33,
        1.0,
        -1.1102230246251568e-16,
        0.0,
        -5.55111512312578e-17,
        1.1102230246251568e-16,
        1.0,
        0.0,
        0.0,
        0.0,
        0.0,
        1.0
      ],
      "name": "pSphere5"
    },
    {
      "mesh": 1,
      "name": "pSphere5_lambert3_0"
    },
    {
      "children": [
        9,
        10
      ],
      "matrix": [
        0.9837105619632203,
        0.13370281799575584,
        -0.12015442872403467,
        0.0,
        -0.03173215430444873,
        0.7870788843027908,
        0.6160356323037431,
        0.0,
        0.17693671372896017,
        -0.6021879991702489,
        0.7785004900384638,
        0.0,
        -0.3485177159309387,
        2.5550413131713867,
        -4.581307411193848,
        1.0
      ],
      "name": "polySurface487"
    },
    {
      "mesh": 2,
      "name": "polySurface487_lambert4_0"
    },
    {
      "mesh": 3,
      "name": "polySurface487_lambert4_0"
    },
    {
      "children": [
        12,
        13
      ],
      "matrix": [
        0.9837105619632203,
        0.13370281799575584,
        -0.12015442872403467,
        0.0,
        -0.03173215430444873,
        0.7870788843027908,
        0.6160356323037431,
        0.0,
        0.17693671372896017,
        -0.6021879991702489,
        0.7785004900384638,
        0.0,
        -0.3485177159309387,
        2.5550413131713867,
        -4.581307411193848,
        1.0
      ],
      "name": "polySurface488"
    },
    {
      "mesh": 4,
      "name": "polySurface488_phong4_0"
    },
    {
      "mesh": 5,
      "name": "polySurface488_phong4_0"
    }
  ],
  "scene": 0,
  "scenes": [
    {
      "name": "Sketchfab_Scene",
      "nodes": [
        0
      ]
    }
  ]
}
